<svg xmlns="http://www.w3.org/2000/svg" width="208" height="33" viewBox="0 0 208 33" fill="none">
  <path d="M19.5916 17.8597C19.4754 17.6918 19.3347 17.5426 19.2062 17.3872C18.9608 17.079 18.695 16.7882 18.4108 16.5167C18.2578 16.3799 18.1232 16.2306 17.9641 16.1063C17.6955 15.8911 17.4134 15.6938 17.1197 15.5156C16.8994 15.385 16.6793 15.2544 16.4529 15.1363C16.741 14.9472 17.0168 14.7395 17.2788 14.5145C17.5374 14.2889 17.7788 14.0435 18.0009 13.7807C18.8012 12.83 19.3457 11.685 19.5816 10.457C19.8175 9.22904 19.7366 7.95996 19.3469 6.77314C19.3102 6.66122 19.2674 6.54928 19.2307 6.44357L19.1633 6.2819C18.3049 4.15457 16.7593 2.38762 14.781 1.27183C12.8028 0.156043 10.5097 -0.242072 8.27916 0.142967C6.04859 0.528005 4.01343 1.67325 2.50867 3.39027C1.0039 5.1073 0.119122 7.29377 0 9.58985V31.7693H4.05055V10.0686C4.05196 8.99135 4.3381 7.93422 4.87916 7.0078C5.42021 6.08138 6.19624 5.3197 7.12611 4.8024C8.05598 4.28511 9.10558 4.03122 10.1651 4.06725C11.2246 4.10328 12.255 4.42791 13.1488 5.00723L13.2223 5.06943C13.4602 5.22745 13.687 5.40195 13.9013 5.59172C14.7332 6.37667 15.248 7.44813 15.3452 8.5975C15.4425 9.74687 15.1154 10.8919 14.4276 11.8097C13.9733 12.3928 13.3948 12.8636 12.7356 13.1867C12.0764 13.5098 11.3537 13.6768 10.6219 13.675H5.68416V17.7913H12.023C12.2278 17.7948 12.4322 17.8114 12.6349 17.8411C13.2808 17.9249 13.9043 18.1361 14.4705 18.4629C14.6483 18.5618 14.8199 18.6718 14.9843 18.7924C15.5443 19.2022 16.0092 19.7318 16.3462 20.3438C16.6832 20.9558 16.8842 21.6354 16.9349 22.3348C16.9857 23.0342 16.8849 23.7364 16.6399 24.3921C16.3949 25.0477 16.0115 25.6408 15.5167 26.1296C14.5914 27.0491 13.3478 27.5627 12.0537 27.5597H5.71478V31.676H11.6804C11.9741 31.676 12.2922 31.676 12.5553 31.6387C12.8184 31.6014 13.1305 31.5703 13.412 31.5206C13.9701 31.4219 14.5187 31.2742 15.0517 31.0791C15.3087 30.9858 15.5718 30.8801 15.8226 30.762C16.5759 30.4116 17.283 29.9667 17.9274 29.4376L18.0193 29.3629C18.3723 29.0756 18.7017 28.7595 19.0043 28.4178C19.1266 28.2872 19.2368 28.138 19.3531 27.995C19.4693 27.852 19.5917 27.7152 19.7019 27.566C19.8181 27.3919 19.9281 27.2177 20.0321 27.0374C20.3458 26.4916 20.5982 25.9118 20.7847 25.3088C21.0464 24.4789 21.1786 23.6124 21.1764 22.7408C21.1778 21.3073 20.8198 19.8971 20.1362 18.6432C19.9343 18.382 19.769 18.1209 19.5916 17.8597Z" fill="white"/>
  <path d="M37.7878 16.5168V16.579V22.7472C37.7872 23.016 37.7648 23.2843 37.7206 23.5493C37.5959 24.3207 37.2941 25.0514 36.8396 25.6821C36.7397 25.8214 36.6314 25.9544 36.5153 26.08C36.1468 26.4795 35.717 26.8155 35.2425 27.0749L35.1629 27.1122C35.0344 27.1806 34.906 27.2366 34.7714 27.2925L34.6429 27.3423C34.5206 27.3858 34.392 27.4293 34.2696 27.4604L34.1228 27.4977L33.7252 27.5724H33.5906C33.2266 27.614 32.8592 27.614 32.4953 27.5724H32.3607C32.2261 27.5724 32.0975 27.5288 31.9629 27.4977C31.9133 27.4882 31.8643 27.4758 31.8161 27.4604C31.6937 27.4604 31.5653 27.3858 31.4429 27.3423L31.3145 27.2925C31.1799 27.2366 31.0513 27.1806 30.9228 27.1122L30.8433 27.0749C30.3689 26.8155 29.939 26.4795 29.5706 26.08C29.4545 25.9544 29.3462 25.8214 29.2463 25.6821C28.7952 25.0501 28.4956 24.3198 28.3714 23.5493C28.3323 23.2838 28.3118 23.0157 28.3102 22.7472V16.579V13.7188H24.2598V22.4239C24.2564 24.734 25.0339 26.9753 26.4624 28.7724L26.5359 28.8657C26.817 29.2259 27.1282 29.5608 27.4659 29.8667C27.7347 30.1182 28.0165 30.3548 28.3102 30.5756C29.7063 31.5537 31.3625 32.0764 33.0582 32.0741H33.15C34.8458 32.0764 36.5019 31.5537 37.8981 30.5756C38.1918 30.3548 38.4736 30.1182 38.7423 29.8667C39.0801 29.5608 39.3912 29.2259 39.6724 28.8657L39.7459 28.7724C41.1743 26.9753 41.9518 24.734 41.9485 22.4239V13.7188H37.8981L37.7878 16.5168Z" fill="white"/>
  <path d="M92.1453 16.6723L92.0718 16.5791C91.7902 16.2172 91.477 15.8822 91.1358 15.578C90.8699 15.3232 90.5877 15.0864 90.2914 14.8691C88.8978 13.8904 87.2434 13.3676 85.5495 13.3706H85.4578C83.7619 13.3675 82.1055 13.8903 80.7098 14.8691C80.4146 15.088 80.1325 15.3247 79.8653 15.578C79.5276 15.8839 79.2164 16.2188 78.9353 16.5791C78.9056 16.6072 78.879 16.6385 78.8558 16.6723C77.43 18.4681 76.6545 20.7072 76.6592 23.0147V31.7198H80.7098V28.8533V22.6851C80.7085 22.4144 80.7288 22.1441 80.7708 21.8768C80.8928 21.1037 81.1927 20.3709 81.6459 19.7378C81.747 19.5994 81.8551 19.4665 81.9701 19.3398C82.3374 18.9365 82.7699 18.6001 83.2489 18.345L83.3285 18.3014C83.457 18.2393 83.5854 18.1771 83.72 18.1274L83.8485 18.0776C83.9699 18.0289 84.0947 17.9894 84.2218 17.9595L84.3686 17.9159C84.4971 17.9159 84.6317 17.86 84.7663 17.8413H84.9009C85.2623 17.7916 85.6286 17.7916 85.99 17.8413H86.1246C86.2592 17.8413 86.3939 17.8848 86.5224 17.9159L86.6692 17.9595C86.7963 17.9894 86.921 18.0289 87.0424 18.0776L87.177 18.1274C87.3054 18.1771 87.4401 18.2393 87.5625 18.3014L87.6481 18.345C88.1251 18.6003 88.5556 18.9367 88.9208 19.3398C89.0309 19.4704 89.1411 19.601 89.239 19.7378C89.691 20.3722 89.9925 21.1043 90.12 21.8768C90.1641 22.1439 90.1866 22.4142 90.1874 22.6851V28.8533V31.7198H94.2439V23.0147C94.2464 20.7065 93.4689 18.4676 92.0413 16.6723H92.1453Z" fill="white"/>
  <path d="M67.8727 17.835H63.8223V31.7134H67.8727V17.835Z" fill="white"/>
  <path d="M72.4988 11.4551C72.0983 11.4551 71.7067 11.5758 71.3737 11.802C71.0406 12.0281 70.7811 12.3495 70.6278 12.7256C70.4746 13.1017 70.4344 13.5155 70.5125 13.9147C70.5907 14.314 70.7836 14.6807 71.0669 14.9685C71.3501 15.2564 71.7109 15.4524 72.1037 15.5318C72.4966 15.6112 72.9039 15.5705 73.2739 15.4147C73.644 15.2589 73.9602 14.9951 74.1828 14.6567C74.4053 14.3182 74.5241 13.9203 74.5241 13.5132C74.5241 12.9674 74.3107 12.4439 73.9309 12.0579C73.5511 11.6719 73.0359 11.4551 72.4988 11.4551Z" fill="white"/>
  <path d="M56.6031 22.2497L56.3522 22.1627L53.654 21.2238L50.8823 20.26L49.0467 19.6382H49.0039C48.8018 19.5599 48.6329 19.4124 48.5263 19.2212C48.4197 19.03 48.3818 18.8069 48.4195 18.5905C48.4572 18.3741 48.5679 18.1778 48.7326 18.0354C48.8973 17.8929 49.1058 17.8133 49.322 17.8101H58.1817V13.6938H49.1874C48.2681 13.718 47.3734 14.0003 46.6023 14.5096C45.8312 15.0188 45.2138 15.7351 44.8187 16.5789C44.6324 16.9737 44.4987 17.3919 44.4211 17.8225L44.3843 18.0526C44.3782 18.1707 44.3782 18.289 44.3843 18.407C44.3843 18.5314 44.3843 18.6433 44.3843 18.7677C44.3942 19.8235 44.7246 20.8505 45.3302 21.7085C45.9357 22.5665 46.787 23.2137 47.7679 23.5617L50.5764 24.5441L55.1775 26.1484L55.2631 26.1795C55.4663 26.2584 55.6355 26.4077 55.741 26.6011C55.8465 26.7944 55.8814 27.0193 55.8397 27.2363C55.7981 27.4532 55.6825 27.6483 55.5132 27.7871C55.3439 27.9259 55.1318 27.9996 54.9143 27.9951H44.3721V32.0617H54.896C56.0312 32.0609 57.1322 31.666 58.0165 30.9424C58.1506 30.833 58.2794 30.7168 58.402 30.5942C59.1037 29.8771 59.5788 28.9634 59.7664 27.9702L59.803 27.7464C59.8348 27.5073 59.8512 27.2664 59.852 27.0251C59.8572 25.9868 59.5482 24.9719 58.9671 24.1178C58.386 23.2636 57.5608 22.6115 56.6031 22.2497Z" fill="white"/>
  <path d="M130.993 22.2497L130.748 22.1627L128.056 21.2238L125.278 20.26L123.442 19.6382H123.399C123.197 19.5599 123.028 19.4124 122.922 19.2212C122.815 19.03 122.777 18.8069 122.815 18.5905C122.853 18.3741 122.963 18.1778 123.128 18.0354C123.293 17.8929 123.501 17.8133 123.718 17.8101H132.626V13.6938H123.607C122.688 13.7187 121.794 14.0013 121.023 14.5105C120.252 15.0196 119.634 15.7355 119.239 16.5789C119.052 16.9737 118.919 17.3919 118.841 17.8225L118.804 18.0526C118.804 18.0526 118.804 18.121 118.804 18.1583C118.777 18.3645 118.763 18.5721 118.762 18.7801C118.763 19.5071 118.919 20.2251 119.219 20.8851C119.519 21.5451 119.956 22.1314 120.499 22.6041C120.982 23.0309 121.541 23.3602 122.145 23.5741L124.953 24.5566L129.555 26.1608L129.634 26.1919C129.837 26.2709 130.007 26.4202 130.112 26.6135C130.218 26.8068 130.252 27.0317 130.211 27.2487C130.169 27.4657 130.054 27.6607 129.884 27.7995C129.715 27.9383 129.503 28.012 129.285 28.0075H118.743V32.0617H129.267C130.313 32.0584 131.332 31.7211 132.18 31.0974C133.028 30.4737 133.661 29.5951 133.991 28.5858C134.062 28.3831 134.12 28.1752 134.162 27.964L134.199 27.7402C134.23 27.5011 134.247 27.2602 134.248 27.0189C134.251 25.9809 133.941 24.9668 133.359 24.1138C132.776 23.2609 131.95 22.6102 130.993 22.2497Z" fill="white"/>
  <path d="M149.477 22.2497L149.232 22.1627L146.54 21.2238L143.762 20.26L141.926 19.6382H141.884C141.681 19.5599 141.513 19.4124 141.406 19.2212C141.299 19.03 141.262 18.8069 141.299 18.5905C141.337 18.3741 141.448 18.1778 141.612 18.0354C141.777 17.8929 141.985 17.8133 142.202 17.8101H151.11V13.6938H142.091C141.029 13.722 140.004 14.0969 139.167 14.7633C138.212 15.5196 137.56 16.6022 137.331 17.8101L137.295 18.0402C137.295 18.0402 137.295 18.1086 137.295 18.1459C137.267 18.352 137.253 18.5597 137.252 18.7677C137.253 19.4946 137.41 20.2127 137.709 20.8726C138.009 21.5326 138.446 22.119 138.989 22.5917C139.472 23.0185 140.031 23.3478 140.635 23.5617L143.444 24.5441L148.045 26.1484L148.124 26.1795C148.328 26.2584 148.497 26.4077 148.602 26.6011C148.708 26.7944 148.743 27.0193 148.701 27.2363C148.659 27.4532 148.544 27.6483 148.375 27.7871C148.205 27.9259 147.993 27.9996 147.776 27.9951H137.233V32.0617H147.757C148.907 32.0641 150.021 31.6595 150.908 30.9175L150.982 30.8554C151.204 30.6672 151.408 30.4591 151.594 30.2336C152.119 29.5807 152.477 28.8049 152.634 27.9765L152.67 27.7526C152.702 27.5135 152.719 27.2726 152.719 27.0313C152.725 25.9928 152.418 24.9775 151.838 24.1224C151.258 23.2673 150.434 22.6137 149.477 22.2497Z" fill="white"/>
  <path d="M114.9 19.3084C114.116 17.2901 112.663 15.6132 110.792 14.5664C108.921 13.5196 106.75 13.1685 104.652 13.5736C102.554 13.9786 100.661 15.1145 99.2983 16.7855C97.9357 18.4565 97.1892 20.5581 97.1873 22.7283C97.1873 23.0267 97.1873 23.3501 97.2301 23.6237C97.3583 24.9719 97.776 26.2752 98.4538 27.4415L98.4966 27.5286C99.4356 29.1232 100.822 30.3964 102.478 31.1848C104.134 31.9733 105.984 32.241 107.791 31.9537C109.597 31.6664 111.278 30.8371 112.618 29.5723C113.958 28.3075 114.896 26.6648 115.31 24.8548L111.364 23.9159C111.191 24.6628 110.859 25.3617 110.39 25.9629C109.921 26.5642 109.327 27.0529 108.651 27.3944C107.975 27.7358 107.233 27.9215 106.479 27.9382C105.724 27.955 104.975 27.8024 104.285 27.4912C104.056 27.3842 103.835 27.2595 103.624 27.1181C103.201 26.8516 102.82 26.5226 102.492 26.1419L102.351 25.9554C102.259 25.8373 102.168 25.7129 102.088 25.5886C101.966 25.403 101.856 25.2098 101.758 25.0103C101.759 24.9937 101.759 24.9771 101.758 24.9605L101.709 24.8362C101.66 24.7305 101.617 24.6248 101.574 24.519L101.519 24.3574C101.454 24.1388 101.401 23.9167 101.36 23.6921C101.336 23.5428 101.317 23.3874 101.305 23.2257C101.283 23.0607 101.271 22.8947 101.268 22.7283C101.259 22.5668 101.259 22.4048 101.268 22.2433C101.268 22.0941 101.305 21.9448 101.33 21.8018C101.354 21.6588 101.33 21.665 101.372 21.5966C101.473 21.1416 101.634 20.7025 101.85 20.2909C102.234 19.5644 102.782 18.9409 103.449 18.4714C104.116 18.002 104.884 17.6999 105.688 17.5901C106.492 17.4803 107.31 17.5658 108.076 17.8396C108.841 18.1134 109.532 18.5678 110.091 19.1654L102.376 21.8516L102.92 23.4682L103.685 25.7502L109.889 23.5864L110.617 23.3376L111.486 23.033L114.503 21.9821L115.482 21.6401C115.389 20.8405 115.193 20.0566 114.9 19.3084Z" fill="white"/>
  <path d="M171.261 19.1282C170.52 18.6338 169.648 18.3784 168.759 18.3961C167.86 18.3901 166.975 18.613 166.184 19.0442C165.336 19.5395 164.598 20.2053 164.016 21.0001V13.8003H162.431V31.4159H164.052V26.748C164.011 25.5908 164.091 24.4326 164.29 23.2921C164.537 22.3483 165.075 21.508 165.827 20.8921C166.557 20.2518 167.493 19.9018 168.461 19.9081C169.208 19.8684 169.946 20.0935 170.546 20.5441C171.117 21.0305 171.505 21.7 171.643 22.4401C171.797 23.4079 171.857 24.3885 171.821 25.368V31.4399H173.442V24.9001C173.508 23.6023 173.33 22.3037 172.918 21.0721C172.578 20.2675 171.999 19.5885 171.261 19.1282Z" fill="white"/>
  <path d="M187.999 25.0309C188.051 26.0923 187.967 27.1562 187.75 28.1953C187.517 28.9154 187.058 29.536 186.445 29.9601C185.767 30.4195 184.967 30.6533 184.155 30.6295C183.312 30.659 182.482 30.4163 181.782 29.9358C181.143 29.4874 180.677 28.8245 180.465 28.0615C180.267 27.0647 180.188 26.0472 180.227 25.0309V18.9453H178.614V25.1647C178.545 26.5638 178.75 27.9628 179.219 29.2786C179.604 30.1656 180.246 30.9094 181.058 31.4085C182.004 31.9121 183.054 32.175 184.119 32.175C185.185 32.175 186.235 31.9121 187.18 31.4085C187.983 30.9071 188.62 30.169 189.008 29.2907C189.475 28.0083 189.681 26.6415 189.613 25.2743V18.9453H187.999V25.0309Z" fill="white"/>
  <path d="M205.996 20.5579C205.406 19.9135 204.691 19.4022 203.899 19.0562C203.106 18.7102 202.252 18.5371 201.391 18.5479C200.428 18.5409 199.476 18.7602 198.609 19.1891C197.739 19.6855 196.986 20.3715 196.402 21.1991V13.8003H194.77V31.9028H196.402V29.4365C196.982 30.2896 197.745 30.9942 198.633 31.4958C199.5 31.9532 200.464 32.1861 201.439 32.1741C202.304 32.1876 203.162 32.0157 203.959 31.6697C204.756 31.3237 205.475 30.811 206.068 30.1641C206.692 29.5352 207.185 28.7823 207.517 27.9512C207.849 27.1202 208.013 26.2284 207.999 25.3301C207.989 24.438 207.807 23.5569 207.463 22.7377C207.119 21.9185 206.621 21.1776 205.996 20.5579ZM205.565 28.0307C205.14 28.8354 204.511 29.5062 203.744 29.971C202.977 30.4359 202.101 30.6774 201.211 30.6697C200.541 30.6875 199.874 30.5606 199.254 30.2972C198.635 30.0339 198.075 29.6398 197.613 29.1406C197.137 28.639 196.763 28.0446 196.514 27.3923C196.265 26.74 196.145 26.0431 196.162 25.3425C196.148 24.4078 196.372 23.4857 196.81 22.6666C197.248 21.873 197.891 21.2198 198.668 20.7798C199.441 20.319 200.318 20.0766 201.211 20.077C202.081 20.0766 202.935 20.3195 203.682 20.7798C204.459 21.2484 205.098 21.9264 205.529 22.7406C205.98 23.5448 206.218 24.4571 206.218 25.3857C206.218 26.3143 205.98 27.2265 205.529 28.0307H205.565Z" fill="white"/>
</svg>